/* XPM */
static const char *down_xpm[] = {
/* columns rows colors chars-per-pixel */
"16 16 64 1",
"  c #000000",
". c #03060c",
"X c #050b12",
"o c #060f19",
"O c #001f03",
"+ c #05141e",
"@ c #071620",
"# c #0b293e",
"$ c #070144",
"% c #0b0265",
"& c #0c026b",
"* c #0c0271",
"= c #0d324c",
"- c #0d3652",
"; c #026f0c",
": c #02710c",
"> c #144059",
", c #18425f",
"< c #0d4864",
"1 c #0e5775",
"2 c #114560",
"3 c #124d6f",
"4 c #254a64",
"5 c #600a01",
"6 c #6d0b02",
"7 c #106589",
"8 c #10698f",
"9 c #337f9e",
"0 c #0e8fb6",
"q c #0e96bd",
"w c #1697b7",
"e c #1299bb",
"r c #1f95b2",
"t c #2b91ae",
"y c #2695b1",
"u c #0e9ec3",
"i c #0fa0c4",
"p c #0eadcb",
"a c #14a5c9",
"s c #1ca2c3",
"d c #1babca",
"f c #1bb2ce",
"g c #1db4d0",
"h c #1bbad1",
"j c #2ab4d1",
"k c #15c1da",
"l c #64a3bd",
"z c #46b8d5",
"x c #53b7d4",
"c c #54bdd7",
"v c #40d1db",
"b c #5fc0d8",
"n c #46dbe6",
"m c #48dfe9",
"M c #8fcce2",
"N c #a0cbdf",
"B c #a7dcec",
"V c #bfdfee",
"C c #d3e5f0",
"Z c #dfeff8",
"A c #e0f1fb",
"S c #eff3fc",
"D c white",
"F c None",
/* pixels */
"FFFFFFFFFFFFFFFF",
"FFFFFFFFFFFFFFFF",
"FFFFF3334,=FFFFF",
"FFFFF3NSCl+FFFFF",
"FFFFF3AcMt+FFFFF",
"FFFFF3Spvy+FFFFF",
"FFFFF4Aqmr+FFFFF",
"F-3344Vqhe12># F",
"FF-9ABc0qkms7.FF",
"FFF-9Duqims7oFFF",
"FFFF=tDams7XFFFF",
"FFFFF=9As7XFFFFF",
"FFFFFF-87oFFFFFF",
"FFFFFFF-.FFFFFFF",
"FFFFFFFFFFFFFFFF",
"FFFFFFFFFFFFFFFF"
};
