/* XPM */
static const char * full_punct_xpm[] = {
"16 16 2 1",
" 	c None",
".	c #1520EF",
"                ",
"                ",
"                ",
"                ",
"  ....     ...  ",
" ..  ..   ..... ",
" .    .   ..... ",
" .    .   ..... ",
" ..  ..    .... ",
"  ....      ... ",
"            ..  ",
"          ...   ",
"         ...    ",
"                ",
"                ",
"                "};
