/* XPM */
static char *full_letter_xpm[]={
"16 16 2 1",
". c None",
"# c #0000ff",
"................",
".....######.....",
"....#.....##....",
"...#........#...",
"..#..........#..",
".##...........#.",
".#............#.",
".#............#.",
".#............#.",
".#............#.",
".#...........##.",
"..#..........#..",
"...#........#...",
"....##.....#....",
".....######.....",
"................"};
