/* XPM */
static const char *help_xpm[] = {
/* columns rows colors chars-per-pixel */
"16 16 16 1",
"  c black",
". c #00385b",
"X c #003e66",
"o c #00406a",
"O c #004572",
"+ c #00528c",
"@ c #005896",
"# c #005a99",
"$ c #2a82bf",
"% c #2982c0",
"& c #408fc6",
"* c #4f97ca",
"= c #66a7d1",
"- c #6baad2",
"; c #8bbbdc",
": c None",
/* pixels */
"::::...... :::::",
":::.$+   ++  :::",
"::X-+ :::.$++ ::",
"::O* :::::.$+ ::",
"::.$+ ::::X&+ ::",
":::.++ :::o&+ ::",
"::::   ::.=+ :::",
"::::::::.;# ::::",
":::::::.=# :::::",
"::::::.$+ ::::::",
"::::::.$+ ::::::",
":::::::  :::::::",
"::::::::::::::::",
":::::::..:::::::",
"::::::.=+ ::::::",
":::::::  :::::::"
};
