/* XPM */
static const char * left_xpm[] = {
"16 16 40 1",
" 	c None",
".	c #000000",
"+	c #0A121F",
"@	c #071728",
"#	c #105375",
"$	c #155678",
"%	c #1CA2C3",
"&	c #16597A",
"*	c #138DB0",
"=	c #3CD7E1",
"-	c #0A263B",
";	c #081E31",
">	c #48DFE9",
",	c #0EA0C5",
"'	c #159ABC",
")	c #2A98B3",
"!	c #178EAC",
"~	c #061625",
"{	c #0E97BF",
"]	c #26BDD3",
"^	c #43D5DE",
"/	c #2CC7D5",
"(	c #19B3CE",
"_	c #091A2B",
":	c #124C6E",
"<	c #819EBA",
"[	c #DDEFF8",
"}	c #59C3DA",
"|	c #1197B9",
"1	c #58ACC5",
"2	c #FDFBFD",
"3	c #71D1E0",
"4	c #9DDAEB",
"5	c #CDEBF6",
"6	c #80C2DB",
"7	c #1A4C6B",
"8	c #114760",
"9	c #E2F0F9",
"0	c #7DA0B8",
"a	c #20374F",
"                ",
"        .       ",
"       +.       ",
"      @#.       ",
"     @$%.       ",
"    @&*=&---..  ",
"   ;$*>,'')!!.  ",
"  ~$*=,{]^^/(_  ",
"  :<[}({||||1_  ",
"   $<23(45256_  ",
"    7<2}8$####  ",
"     7<9.       ",
"      70.       ",
"       :a       ",
"        $       ",
"                "};
