/* XPM */
static const char * pin_down_xpm[] = {
"16 16 4 1",
" 	c None",
".	c #000000",
"+	c #FFFFFF",
"@	c #B4B6B4",
"                ",
"                ",
"        ....    ",
"      ..++++.   ",
"    ...++++++.  ",
"    .+.+++@@@.  ",
"   .++.++@@@..  ",
"   .++..+@@...  ",
"   .++++.....   ",
"   .+++@@@@..   ",
"    .+@@@@...   ",
"    .@@@@...    ",
"     ......     ",
"                ",
"                ",
"                "};
