/* XPM */
static const char * right_xpm[] = {
"16 16 43 1",
" 	c None",
".	c #000000",
"+	c #0B293E",
"@	c #03060C",
"#	c #144059",
"$	c #106589",
"%	c #060F19",
"&	c #114560",
"*	c #1CA2C3",
"=	c #050B12",
"-	c #0D324C",
";	c #05141E",
">	c #0E5775",
",	c #48DFE9",
"'	c #18425F",
")	c #64A3BD",
"!	c #2B91AE",
"~	c #2695B1",
"{	c #1F95B2",
"]	c #1299BB",
"^	c #15C1DA",
"/	c #254A64",
"(	c #D3E5F0",
"_	c #8FCCE2",
":	c #40D1DB",
"<	c #1BBAD1",
"[	c #0E96BD",
"}	c #0FA0C4",
"|	c #124D6F",
"1	c #EFF3FC",
"2	c #54BDD7",
"3	c #0EADCB",
"4	c #0E8FB6",
"5	c #14A5C9",
"6	c #E0F1FB",
"7	c #10698F",
"8	c #0D3652",
"9	c #A0CBDF",
"0	c #BFDFEE",
"a	c #0E9EC3",
"b	c #FFFFFF",
"c	c #337F9E",
"d	c #A7DCEC",
"                ",
"       .        ",
"       +@       ",
"       #$%      ",
"       &*$=     ",
"  -;;;;>,*$=    ",
"  ')!~{]^,*$%   ",
"  /(_:,<[},*$@  ",
"  |123[[4[5678  ",
"  |961602abc8   ",
"  ||||//db!-    ",
"       /6c-     ",
"       |c8      ",
"       |8       ",
"       8        ",
"                "};
