/* XPM */
static const char *setup_xpm[]={
"16 16 15 1",
". c None",
"# c #000000",
"l c #303030",
"i c #585858",
"b c #646464",
"f c #787878",
"a c #808080",
"d c #a0a0a0",
"j c #b7b7b7",
"e c #b8b8b8",
"c c #c2c2c2",
"m c #cfcfcf",
"k c #e7e7e7",
"h c #ededed",
"g c #ffffff",
"...######.......",
"...#ab.cd##.....",
"....#efb.cd#....",
"###..##eb.c#....",
"#gc##..#b..d#...",
"#gh.c#ibc..j#...",
"#bgh......kcd##.",
"lgbfghh..kcmcdd#",
"#c.gbbbfdch.mcjd",
".##c.cccfbfgh.mc",
"...###d.ccdbfgh.",
"......####h.dbfg",
"..........##h.db",
"............##h.",
"..............##",
"................"};
