/* XPM */
static const char * trademark_xpm[] = {
"24 24 5 1",
" 	c None",
".	c #3D55FD",
"+	c #D71FEF",
"@	c #568C56",
"#	c #F93E00",
"                        ",
"                        ",
"    ......      +++     ",
"   ...  ...   +++++++   ",
"   ..         ++   ++   ",
"   ..        ++         ",
"   .....     ++         ",
"      ....   ++         ",
"         ..  ++         ",
"         ..   ++   ++   ",
"   ...  ...   +++++++   ",
"    ......     +++++    ",
"                        ",
"   @@@@@@@@  ##    ##   ",
"   @@@@@@@@  ##    ##   ",
"      @@     ###  ###   ",
"      @@     ###  ###   ",
"      @@     ########   ",
"      @@     ########   ",
"      @@     ## ## ##   ",
"      @@     ## ## ##   ",
"   @@@@@@@@  ## ## ##   ",
"   @@@@@@@@  ## ## ##   ",
"                        "};
