/* XPM */
static const char *up_xpm[] = {
/* columns rows colors chars-per-pixel */
"16 16 65 1",
"  c #000000",
". c #06101d",
"X c #0a121f",
"o c #061625",
"O c #071728",
"+ c #071a2b",
"@ c #091a2b",
"# c #081e31",
"$ c #082033",
"% c #0a263b",
"& c #2f0500",
"* c #323e01",
"= c #20374f",
"- c #18415d",
"; c #0f4b6a",
": c #0f5d7e",
"> c #114760",
", c #124c6e",
"< c #1a4c6b",
"1 c #105375",
"2 c #155678",
"3 c #16597a",
"4 c #214764",
"5 c #3c5c73",
"6 c #710c02",
"7 c #42556d",
"8 c #116c92",
"9 c #287c9f",
"0 c #14839f",
"q c #0e97bf",
"w c #178eac",
"e c #138db0",
"r c #1290b4",
"t c #1197b9",
"y c #159abc",
"u c #2294b1",
"i c #2a98b3",
"p c #0ea0c5",
"a c #14a5c9",
"s c #1ca2c3",
"d c #19b3ce",
"f c #1bb8d2",
"g c #26bdd3",
"h c #2cc7d5",
"j c #3cd7e1",
"k c #5486a3",
"l c #7da0b8",
"z c #4bbfd8",
"x c #58acc5",
"c c #50b3cf",
"v c #43d5de",
"b c #50c1d9",
"n c #59c3da",
"m c #48dfe9",
"M c #71d1e0",
"N c #c3162e",
"B c #819eba",
"V c #80c2db",
"C c #9ddaeb",
"Z c #b6dae9",
"A c #cdebf6",
"S c #ddeff8",
"D c #e2f0f9",
"F c #fdfbfd",
"G c None",
/* pixels */
"GGGGGGGGGGGGGGGG",
"GGGGGGGGGGGGGGGG",
"GGGGGGG,oGGGGGGG",
"GGGGGG2B2#GGGGGG",
"GGGGG<BSe2OGGGGG",
"GGGG<BFnje3OGGGG",
"GGG<BFMdpme2OGGG",
"GG,lDndqqpjs1XGG",
"G2=  >Ctgy3    G",
"GGGGG2Atvy%GGGGG",
"GGGGG1Ftvi%GGGGG",
"GGGGG1Athw%GGGGG",
"GGGGG1Vxdw GGGGG",
"GGGGG1@@@  GGGGG",
"GGGGGGGGGGGGGGGG",
"GGGGGGGGGGGGGGGG"
};
